<?xml version="1.0" encoding="UTF-8" standalone="no"?>
<svg
   xmlns:dc="http://purl.org/dc/elements/1.1/"
   xmlns:cc="http://creativecommons.org/ns#"
   xmlns:rdf="http://www.w3.org/1999/02/22-rdf-syntax-ns#"
   xmlns:svg="http://www.w3.org/2000/svg"
   xmlns="http://www.w3.org/2000/svg"
   xmlns:sodipodi="http://sodipodi.sourceforge.net/DTD/sodipodi-0.dtd"
   xmlns:inkscape="http://www.inkscape.org/namespaces/inkscape"
   width="32"
   height="32"
   version="1"
   id="svg16"
   sodipodi:docname="app.svg"
   inkscape:version="0.92.5 (2060ec1f9f, 2020-04-08)"
   inkscape:export-filename="/home/nikolai/soubor/main/assets/app.png"
   inkscape:export-xdpi="1087.3213"
   inkscape:export-ydpi="1087.3213">
  <metadata
     id="metadata22">
    <rdf:RDF>
      <cc:Work
         rdf:about="">
        <dc:format>image/svg+xml</dc:format>
        <dc:type
           rdf:resource="http://purl.org/dc/dcmitype/StillImage" />
      </cc:Work>
    </rdf:RDF>
  </metadata>
  <defs
     id="defs20" />
  <sodipodi:namedview
     pagecolor="#ffffff"
     bordercolor="#666666"
     borderopacity="1"
     objecttolerance="10"
     gridtolerance="10"
     guidetolerance="10"
     inkscape:pageopacity="0"
     inkscape:pageshadow="2"
     inkscape:window-width="1439"
     inkscape:window-height="986"
     id="namedview18"
     showgrid="false"
     inkscape:zoom="14.75"
     inkscape:cx="19.35258"
     inkscape:cy="18.385794"
     inkscape:window-x="1168"
     inkscape:window-y="315"
     inkscape:window-maximized="0"
     inkscape:current-layer="svg16" />
  <path
     d="M 27.067797,25.449153 V 5.8062957 c 0,-0.652928 -0.669,-1.178571 -1.5,-1.178571 H 6.5677966 c -0.831,0 -1.5,0.525643 -1.5,1.178571 V 25.449153 c 0,0.652928 0.669,1.178572 1.5,1.178572 H 25.567797 c 0.831,0 1.5,-0.525644 1.5,-1.178572 z"
     id="path2"
     inkscape:connector-curvature="0"
     style="fill:#e6e6e6;fill-opacity:1;stroke-width:0.88640523" />
  <g
     transform="translate(-4.9535427,-7.49335)"
     id="g10"
     style="fill:#477b83;fill-opacity:0.67727272">
    <circle
       cx="21"
       cy="23"
       r="8"
       id="circle8"
       style="fill:#477b83;fill-opacity:0.67727272" />
  </g>
  <path
     style="fill:#ffffff;stroke-width:0.87064159"
     d="m 18.144816,11.819134 c -0.10748,0 -0.215782,0.0397 -0.299237,0.120365 l -0.823335,0.802437 1.577483,1.524629 0.830252,-0.795749 c 0.166919,-0.161318 0.166919,-0.415426 0,-0.576752 l -0.987655,-0.954565 c -0.08346,-0.08066 -0.190028,-0.120365 -0.297508,-0.120365 z m -1.74872,1.527972 -3.926408,3.794857 v 1.524629 h 1.577481 l 3.926408,-3.794856 z"
     id="path12"
     inkscape:connector-curvature="0" />
  <path
     d="m 24.011417,15.903153 a 8,8 0 0 1 -7.979,7.576 8,8 0 0 1 -7.9790008,-7.424 8,8 0 0 0 -0.021,0.424 8,8 0 0 0 8.0000008,8 8,8 0 0 0 8,-8 8,8 0 0 0 -0.02148,-0.57617 z"
     id="path14"
     inkscape:connector-curvature="0"
     style="opacity:0.2;fill-rule:evenodd" />
</svg>
