<?xml version="1.0" encoding="UTF-8" standalone="no"?>
<svg
   xmlns:dc="http://purl.org/dc/elements/1.1/"
   xmlns:cc="http://creativecommons.org/ns#"
   xmlns:rdf="http://www.w3.org/1999/02/22-rdf-syntax-ns#"
   xmlns:svg="http://www.w3.org/2000/svg"
   xmlns="http://www.w3.org/2000/svg"
   xmlns:sodipodi="http://sodipodi.sourceforge.net/DTD/sodipodi-0.dtd"
   xmlns:inkscape="http://www.inkscape.org/namespaces/inkscape"
   width="32"
   height="32"
   version="1"
   id="svg16"
   sodipodi:docname="app.svg"
   inkscape:version="0.92.5 (2060ec1f9f, 2020-04-08)"
   inkscape:export-filename="/home/nikolai/soubor/main/assets/app.png"
   inkscape:export-xdpi="1065.0818"
   inkscape:export-ydpi="1065.0818">
  <metadata
     id="metadata22">
    <rdf:RDF>
      <cc:Work
         rdf:about="">
        <dc:format>image/svg+xml</dc:format>
        <dc:type
           rdf:resource="http://purl.org/dc/dcmitype/StillImage" />
      </cc:Work>
    </rdf:RDF>
  </metadata>
  <defs
     id="defs20" />
  <sodipodi:namedview
     pagecolor="#ffffff"
     bordercolor="#666666"
     borderopacity="1"
     objecttolerance="10"
     gridtolerance="10"
     guidetolerance="10"
     inkscape:pageopacity="0"
     inkscape:pageshadow="2"
     inkscape:window-width="1439"
     inkscape:window-height="986"
     id="namedview18"
     showgrid="false"
     inkscape:zoom="10.429825"
     inkscape:cx="18.194445"
     inkscape:cy="11.838188"
     inkscape:window-x="675"
     inkscape:window-y="297"
     inkscape:window-maximized="0"
     inkscape:current-layer="svg16" />
  <path
     d="M 26.118644,28.70339 V 3.7033898 c 0,-0.831 -0.669,-1.5 -1.5,-1.5 H 5.6186441 c -0.831,0 -1.5,0.669 -1.5,1.5 V 28.70339 c 0,0.831 0.669,1.5 1.5,1.5 H 24.618644 c 0.831,0 1.5,-0.669 1.5,-1.5 z"
     id="path2"
     inkscape:connector-curvature="0"
     style="fill:#e6e6e6;fill-opacity:1" />
  <path
     fill="#fff"
     opacity=".1"
     d="m6.5 2c-0.831 0-1.5 0.669-1.5 1.5v1c0-0.831 0.669-1.5 1.5-1.5h19c0.831 0 1.5 0.669 1.5 1.5v-1c0-0.831-0.669-1.5-1.5-1.5z"
     id="path4" />
  <path
     d="m 4.118644,28.70339 v 1 c 0,0.831 0.669,1.5 1.5,1.5 h 19 c 0.831,0 1.5,-0.669 1.5,-1.5 v -1 c 0,0.831 -0.669,1.5 -1.5,1.5 h -19 c -0.831,0 -1.5,-0.669 -1.5,-1.5 z"
     id="path6"
     inkscape:connector-curvature="0"
     style="opacity:0.2" />
  <g
     transform="translate(-5.8068163,-3.3896593)"
     id="g10"
     style="fill:#477b83;fill-opacity:0.67727274">
    <circle
       cx="21"
       cy="23"
       r="8"
       id="circle8"
       style="fill:#477b83;fill-opacity:0.67727274" />
  </g>
  <path
     style="fill:#ffffff;stroke-width:1.12286758"
     d="m 18.223159,15.133356 c -0.13679,0 -0.274626,0.05189 -0.380839,0.157309 l -1.047857,1.048729 2.00766,1.992585 1.056662,-1.039989 c 0.212437,-0.210831 0.212437,-0.542933 0,-0.753775 l -1.256988,-1.24755 c -0.106218,-0.105421 -0.241848,-0.157309 -0.378638,-0.157309 z m -2.225595,1.996954 -4.997135,4.959614 v 1.992585 h 2.007659 l 4.997135,-4.959614 z"
     id="path12"
     inkscape:connector-curvature="0" />
  <path
     d="m 23.206082,20.0203 a 8,8 0 0 1 -7.979,7.576 8,8 0 0 1 -7.979,-7.424 8,8 0 0 0 -0.021,0.424 8,8 0 0 0 8,8 8,8 0 0 0 8,-8 8,8 0 0 0 -0.02148,-0.57617 z"
     id="path14"
     inkscape:connector-curvature="0"
     style="opacity:0.2;fill-rule:evenodd" />
</svg>
